<svg width="200" height="200" viewBox="0 0 200 200" fill="none" xmlns="http://www.w3.org/2000/svg">
<g clip-path="url(#clip0_3_2)">
<path d="M0 100C0 126.522 10.5357 151.957 29.2893 170.711C48.043 189.464 73.4783 200 100 200C126.522 200 151.957 189.464 170.711 170.711C189.464 151.957 200 126.522 200 100C200 73.4783 189.464 48.043 170.711 29.2893C151.957 10.5357 126.522 0 100 0C73.4783 0 48.043 10.5357 29.2893 29.2893C10.5357 48.043 0 73.4783 0 100Z" fill="#F766A8"/>
<path d="M158.683 64.119L111.708 79.124L43.836 136.046L81.311 198.254C87.4725 199.418 93.7295 200.003 100 200C155.228 200 200 155.228 200 100L158.683 64.119Z" fill="#EF459B"/>
<path d="M101.23 32.285C63.813 32.285 33.48 62.618 33.48 100.035C33.48 137.452 63.813 167.785 101.23 167.785C138.647 167.785 168.98 137.452 168.98 100.035C168.98 62.618 138.648 32.285 101.23 32.285ZM101.23 152.948C72.007 152.948 48.317 129.258 48.317 100.035C48.317 70.812 72.007 47.122 101.23 47.122C130.453 47.122 154.143 70.812 154.143 100.035C154.143 129.258 130.453 152.948 101.23 152.948Z" fill="#FFCA00"/>
<path d="M48.317 100.035C48.317 106.984 49.6856 113.864 52.3448 120.284C55.0039 126.704 58.9014 132.537 63.8149 137.45C68.7283 142.364 74.5614 146.261 80.9811 148.92C87.4008 151.579 94.2814 152.948 101.23 152.948C108.179 152.948 115.059 151.579 121.479 148.92C127.899 146.261 133.732 142.364 138.645 137.45C143.559 132.537 147.456 126.704 150.115 120.284C152.774 113.864 154.143 106.984 154.143 100.035C154.143 93.0864 152.774 86.2058 150.115 79.7861C147.456 73.3664 143.559 67.5333 138.645 62.6199C133.732 57.7064 127.899 53.8089 121.479 51.1498C115.059 48.4906 108.179 47.122 101.23 47.122C94.2814 47.122 87.4008 48.4906 80.9811 51.1498C74.5614 53.8089 68.7283 57.7064 63.8149 62.6199C58.9014 67.5333 55.0039 73.3664 52.3448 79.7861C49.6856 86.2058 48.317 93.0864 48.317 100.035Z" fill="white"/>
<path d="M99.736 52.377H102.725V62.3H99.736V52.377ZM99.736 137.772H102.725V147.695H99.736V137.772Z" fill="#245474"/>
<path d="M78.696 58.012L83.657 66.606L81.07 68.1L76.108 59.507L78.696 58.012ZM121.395 131.966L126.357 140.559L123.768 142.053L118.807 133.46L121.395 131.966Z" fill="#245474"/>
<path d="M60.703 74.91L69.296 79.871L67.802 82.46L59.209 77.498L60.703 74.91ZM134.654 117.607L143.248 122.568L141.753 125.157L133.16 120.195L134.654 117.607Z" fill="#245474"/>
<path d="M53.572 98.541H63.495V101.53H53.572V98.541ZM138.966 98.541H148.889V101.53H138.966V98.541Z" fill="#245474"/>
<path d="M67.8 117.618L69.295 120.207L60.7 125.168L59.206 122.58L67.8 117.618ZM141.76 74.922L143.255 77.511L134.66 82.472L133.166 79.884L141.76 74.922Z" fill="#245474"/>
<path d="M81.064 131.965L83.652 133.459L78.691 142.053L76.102 140.558L81.064 131.965ZM123.759 58.015L126.347 59.509L121.386 68.103L118.797 66.608L123.759 58.015Z" fill="#245474"/>
<path d="M95.779 100.035C95.779 101.481 96.3533 102.867 97.3755 103.889C98.3978 104.912 99.7843 105.486 101.23 105.486C102.676 105.486 104.062 104.912 105.084 103.889C106.107 102.867 106.681 101.481 106.681 100.035C106.681 98.5893 106.107 97.2028 105.084 96.1805C104.062 95.1583 102.676 94.584 101.23 94.584C99.7843 94.584 98.3978 95.1583 97.3755 96.1805C96.3533 97.2028 95.779 98.5893 95.779 100.035Z" fill="#009EA0"/>
<path d="M98.678 100.035C98.678 100.712 98.9469 101.361 99.4254 101.84C99.904 102.318 100.553 102.587 101.23 102.587C101.907 102.587 102.556 102.318 103.035 101.84C103.513 101.361 103.782 100.712 103.782 100.035C103.782 99.3582 103.513 98.7091 103.035 98.2305C102.556 97.7519 101.907 97.483 101.23 97.483C100.553 97.483 99.904 97.7519 99.4254 98.2305C98.9469 98.7091 98.678 99.3582 98.678 100.035Z" fill="white"/>
<path d="M84.224 102.024C89.36 101.746 93.416 99.532 93.416 99.532C93.416 99.532 89.145 97.768 84.009 98.046C78.873 98.324 74.817 100.538 74.817 100.538C74.817 100.538 79.088 102.302 84.224 102.024ZM109.608 78.713C111.47 70.908 111.042 64.119 111.042 64.119C111.042 64.119 107.595 69.984 105.733 77.789C103.871 85.594 104.299 92.383 104.299 92.383C104.299 92.383 107.746 86.518 109.608 78.713Z" fill="#FF9B00"/>
</g>
<defs>
<clipPath id="clip0_3_2">
<rect width="200" height="200" fill="white"/>
</clipPath>
</defs>
</svg>
